<svg width="37" height="37" viewBox="0 0 37 37" fill="none" xmlns="http://www.w3.org/2000/svg">
<path fill-rule="evenodd" clip-rule="evenodd" d="M18.1205 35.3915C27.4493 35.3915 35.0117 27.829 35.0117 18.5003C35.0117 9.17156 27.4493 1.60913 18.1205 1.60913C8.7918 1.60913 1.22937 9.17156 1.22937 18.5003C1.22937 27.829 8.7918 35.3915 18.1205 35.3915ZM13.4301 18.5003C13.4301 15.9174 15.538 13.8095 18.1209 13.8095C20.7039 13.8095 22.8117 15.9174 22.8117 18.5003C22.8117 21.0832 20.7039 23.1911 18.1209 23.1911C15.538 23.1911 13.4301 21.0832 13.4301 18.5003ZM10.9035 18.5003C10.9035 22.4944 14.1269 25.7177 18.1209 25.7177C22.115 25.7177 25.3384 22.4944 25.3384 18.5003C25.3384 14.5062 22.115 11.2828 18.1209 11.2828C14.1269 11.2828 10.9035 14.5062 10.9035 18.5003ZM23.9484 10.9872C23.9484 11.9198 24.7014 12.6728 25.634 12.6728C25.8554 12.6731 26.0747 12.6297 26.2794 12.5451C26.484 12.4605 26.6699 12.3363 26.8265 12.1798C26.9831 12.0232 27.1072 11.8373 27.1918 11.6326C27.2764 11.428 27.3199 11.2087 27.3196 10.9872C27.3196 10.0547 26.5665 9.30165 25.634 9.30165C24.7014 9.30165 23.9484 10.0547 23.9484 10.9872Z" fill="#928A97"/>
</svg>
